<svg xmlns="http://www.w3.org/2000/svg" width="13.03" height="11"><path d="M13.04 1.3a5.238 5.238 0 0 1-1.54.438A2.788 2.788 0 0 0 12.68.201a5.256 5.256 0 0 1-1.7.674 2.625 2.625 0 0 0-1.95-.877 2.722 2.722 0 0 0-2.67 2.778 3.281 3.281 0 0 0 .06.633A7.5 7.5 0 0 1 .91.509a2.848 2.848 0 0 0-.36 1.4 2.8 2.8 0 0 0 1.19 2.312 2.578 2.578 0 0 1-1.21-.347V3.9a2.752 2.752 0 0 0 2.15 2.723 2.676 2.676 0 0 1-.71.1 2.523 2.523 0 0 1-.5-.05 2.692 2.692 0 0 0 2.49 1.929A5.211 5.211 0 0 1 .64 9.791a5.1 5.1 0 0 1-.63-.039A7.36 7.36 0 0 0 4.11 11a7.715 7.715 0 0 0 7.6-7.9c0-.12 0-.24-.01-.36a5.463 5.463 0 0 0 1.34-1.44z" fill="#34404b" fill-rule="evenodd"/></svg>